<?xml version="1.0" encoding="UTF-8"?>
<svg xmlns="http://www.w3.org/2000/svg" xmlns:xlink="http://www.w3.org/1999/xlink" width="512" height="512" viewBox="0 0 512 512"><defs><linearGradient id="a" data-name="New Gradient Swatch 1" x1="21.703" y1="490.297" x2="516.817" y2="-4.817" gradientUnits="userSpaceOnUse"><stop offset="0" stop-color="#003f8a"/><stop offset="0.518" stop-color="#00d7df"/><stop offset="1" stop-color="#006df0"/></linearGradient><linearGradient id="b" x1="-14.297" y1="454.297" x2="480.817" y2="-40.817" xlink:href="#a"/><linearGradient id="c" x1="-2.297" y1="466.297" x2="492.817" y2="-28.817" xlink:href="#a"/><linearGradient id="d" x1="9.703" y1="478.297" x2="504.817" y2="-16.817" xlink:href="#a"/><linearGradient id="e" x1="45.703" y1="514.297" x2="540.817" y2="19.183" xlink:href="#a"/></defs><g><path d="M400,296a104.15,104.15,0,0,0-103.7,96H264V312h8a8,8,0,0,0,8-8V288h60a20.02,20.02,0,0,0,20-20V244a20.02,20.02,0,0,0-20-20H280V208a8,8,0,0,0-8-8h-8V120h32.3a104,104,0,1,0,0-16H215.7a104,104,0,1,0,0,16H248v80h-8a8,8,0,0,0-8,8v16H172a20.02,20.02,0,0,0-20,20v24a20.02,20.02,0,0,0,20,20h60v16a8,8,0,0,0,8,8h8v80H215.7a104,104,0,1,0,0,16h80.6A104,104,0,1,0,400,296Zm0-96a87.469,87.469,0,0,1-50.09-15.69c5.52-5.35,11.86-8.31,18.09-8.31h9.38a23.99,23.99,0,0,0,45.24,0H432c6.23,0,12.57,2.96,18.09,8.31A87.469,87.469,0,0,1,400,200ZM374.35,96.28c12.94,0,32.94-2.34,57.65-12.79V112a32,32,0,0,1-64,0V96.08C369.88,96.2,371.99,96.28,374.35,96.28ZM368,80.04V80a32.03,32.03,0,0,1,32-32c12.65,0,23.86,8.04,29.01,19.34-19.84,8.84-36.12,11.77-46.71,12.62A92.371,92.371,0,0,1,368,80.04Zm40,79.28V168a8,8,0,0,1-16,0v-8.68a47.4,47.4,0,0,0,16,0ZM400,24a87.957,87.957,0,0,1,62.4,149.99C453.65,165.01,442.92,160,432,160h-8v-6.46A48.012,48.012,0,0,0,448,112V80c0-.23-.01-.45-.03-.68a49.189,49.189,0,0,0-13.93-32.66A47.054,47.054,0,0,0,400,32a48.051,48.051,0,0,0-48,48v32a48.012,48.012,0,0,0,24,41.54V160h-8c-10.92,0-21.65,5.01-30.4,13.99A87.957,87.957,0,0,1,400,24ZM112,200a87.469,87.469,0,0,1-50.09-15.69C67.43,178.96,73.77,176,80,176h9.38a23.99,23.99,0,0,0,45.24,0H144c6.23,0,12.57,2.96,18.09,8.31A87.469,87.469,0,0,1,112,200ZM86.35,96.28c12.94,0,32.94-2.34,57.65-12.79V112a32,32,0,0,1-64,0V96.08C81.88,96.2,83.99,96.28,86.35,96.28ZM80,80.04V80a32.03,32.03,0,0,1,32-32c12.65,0,23.86,8.04,29.01,19.34-19.84,8.84-36.12,11.77-46.71,12.62A92.371,92.371,0,0,1,80,80.04Zm40,79.28V168a8,8,0,0,1-16,0v-8.68a47.4,47.4,0,0,0,16,0Zm54.4,14.67C165.65,165.01,154.92,160,144,160h-8v-6.46A48.012,48.012,0,0,0,160,112V80c0-.23-.01-.45-.03-.68a49.189,49.189,0,0,0-13.93-32.66A47.054,47.054,0,0,0,112,32,48.051,48.051,0,0,0,64,80v32a48.012,48.012,0,0,0,24,41.54V160H80c-10.92,0-21.65,5.01-30.4,13.99a88,88,0,1,1,124.8,0ZM112,488a87.469,87.469,0,0,1-50.09-15.69C67.43,466.96,73.77,464,80,464h9.38a23.99,23.99,0,0,0,45.24,0H144c6.23,0,12.57,2.96,18.09,8.31A87.469,87.469,0,0,1,112,488ZM86.35,384.28c12.94,0,32.94-2.34,57.65-12.79V400a32,32,0,0,1-64,0V384.08C81.88,384.2,83.99,384.28,86.35,384.28ZM80,368.04V368a32.036,32.036,0,0,1,32-32c12.65,0,23.86,8.04,29.01,19.34-19.84,8.84-36.12,11.77-46.71,12.62A92.371,92.371,0,0,1,80,368.04Zm40,79.28V456a8,8,0,0,1-16,0v-8.68a47.4,47.4,0,0,0,16,0Zm54.4,14.67C165.65,453.01,154.92,448,144,448h-8v-6.46A48.012,48.012,0,0,0,160,400V368c0-.23-.01-.45-.03-.68a49.189,49.189,0,0,0-13.93-32.66A47.093,47.093,0,0,0,112,320a48.051,48.051,0,0,0-48,48v32a48.012,48.012,0,0,0,24,41.54V448H80c-10.92,0-21.65,5.01-30.4,13.99a88,88,0,1,1,124.8,0ZM248,216h16v8H248Zm-76,56a4,4,0,0,1-4-4V244a4,4,0,0,1,4-4H340a4,4,0,0,1,4,4v24a4,4,0,0,1-4,4Zm76,16h16v8H248ZM400,488a87.469,87.469,0,0,1-50.09-15.69c5.52-5.35,11.86-8.31,18.09-8.31h9.38a23.99,23.99,0,0,0,45.24,0H432c6.23,0,12.57,2.96,18.09,8.31A87.469,87.469,0,0,1,400,488ZM374.35,384.28c12.94,0,32.94-2.34,57.65-12.79V400a32,32,0,0,1-64,0V384.08C369.88,384.2,371.99,384.28,374.35,384.28ZM368,368.04V368a32.036,32.036,0,0,1,32-32c12.65,0,23.86,8.04,29.01,19.34-19.84,8.84-36.12,11.77-46.71,12.62A92.371,92.371,0,0,1,368,368.04Zm40,79.28V456a8,8,0,0,1-16,0v-8.68a47.4,47.4,0,0,0,16,0Zm54.4,14.67C453.65,453.01,442.92,448,432,448h-8v-6.46A48.012,48.012,0,0,0,448,400V368c0-.23-.01-.45-.03-.68a49.189,49.189,0,0,0-13.93-32.66A47.093,47.093,0,0,0,400,320a48.051,48.051,0,0,0-48,48v32a48.012,48.012,0,0,0,24,41.54V448h-8c-10.92,0-21.65,5.01-30.4,13.99a88,88,0,1,1,124.8,0Z" fill="url(#a)"/><circle cx="184" cy="256" r="8" fill="url(#b)"/><circle cx="208" cy="256" r="8" fill="url(#c)"/><circle cx="232" cy="256" r="8" fill="url(#d)"/><path d="M280,264h48a8,8,0,0,0,0-16H280a8,8,0,0,0,0,16Z" fill="url(#e)"/></g></svg>
